<?xml version="1.0" encoding="UTF-8" standalone="no"?>
<!-- Created with Inkscape (http://www.inkscape.org/) -->
<svg xmlns:rdf="http://www.w3.org/1999/02/22-rdf-syntax-ns#" xmlns="http://www.w3.org/2000/svg" height="13.429mm" width="32.858mm" version="1.1" xmlns:cc="http://creativecommons.org/ns#" xmlns:dc="http://purl.org/dc/elements/1.1/" viewBox="0 0 32.858391 13.429222">
 <g transform="translate(-86.083 -130.35)">
  <path d="m87.176 134.88 0.14614-1.1658-0.70139-0.74427c-0.38577-0.40935-0.69334-0.75225-0.68348-0.76203 0.02345-0.0232 4.9874-2.0062 5.0442-2.015 0.02848-0.004 0.79248 0.53978 2.2154 1.578 1.1946 0.87163 2.1898 1.5986 2.2117 1.6155l0.03977 0.0307-0.22899 1.8162-0.22899 1.8162-0.40072-0.0505-0.40072-0.0505 0.18199-1.4826 0.18199-1.4826-0.42546 0.26769-0.42545 0.26769-0.1478 1.1656-0.1478 1.1656-3.1002-1.7834-3.1294-0.18626z" stroke-width=".021989"/>
 </g>
 <g transform="translate(-86.083 -130.35)">
  <g aria-label="alub" transform="scale(1.0767 .92879)" stroke-width=".24574" fill="#ffec00">
   <path d="m83.861 153.35q0.60551 0 1.0642-0.0183 0.47707-0.0367 0.789-0.11009v-2.8441q-0.18349-0.0917-0.60551-0.14679-0.40367-0.0734-0.99083-0.0734-0.38532 0-0.82569 0.055-0.42202 0.055-0.789 0.23854-0.34863 0.16514-0.58716 0.47706-0.23853 0.29358-0.23853 0.789 0 0.91744 0.58716 1.2844 0.58716 0.34862 1.5963 0.34862zm-0.14679-8.5505q1.0275 0 1.7248 0.27523 0.7156 0.25688 1.1376 0.7523 0.44037 0.47706 0.62386 1.156 0.18349 0.66055 0.18349 1.4679v5.9634q-0.22018 0.0367-0.62386 0.11009-0.38532 0.055-0.88074 0.1101-0.49542 0.055-1.0826 0.0917-0.56881 0.055-1.1376 0.055-0.80735 0-1.4862-0.16514-0.6789-0.16514-1.1743-0.51377-0.49542-0.36697-0.77065-0.95413-0.27523-0.58717-0.27523-1.4129 0-0.789 0.31193-1.3578 0.33028-0.56881 0.88074-0.91744 0.55046-0.34862 1.2844-0.51376 0.73395-0.16514 1.5413-0.16514 0.25688 0 0.53211 0.0367 0.27523 0.0183 0.51377 0.0734 0.25688 0.0367 0.44037 0.0734t0.25688 0.055v-0.47707q0-0.42202-0.09174-0.82569-0.09174-0.42202-0.33028-0.73395-0.23853-0.33028-0.66056-0.51377-0.40367-0.20183-1.0642-0.20183-0.84404 0-1.4862 0.12844-0.62386 0.11009-0.93579 0.23853l-0.201-1.41q0.33028-0.14679 1.1009-0.27523 0.77065-0.14679 1.6697-0.14679z"/>
   <path d="m91.834 154.77q-1.578-0.0367-2.2386-0.67891-0.66056-0.6422-0.66056-2v-11.45l1.7064-0.29358v11.468q0 0.42202 0.0734 0.69725 0.07339 0.27523 0.23853 0.44037t0.44037 0.25688q0.27523 0.0734 0.6789 0.12844z"/>
   <path d="m100.36 154.31q-0.58716 0.14679-1.5596 0.31193-0.95414 0.16514-2.2202 0.16514-1.1009 0-1.8532-0.31193-0.7523-0.33028-1.211-0.91744-0.45872-0.58716-0.66056-1.3762-0.20184-0.80735-0.20184-1.7798v-5.3578h1.7064v4.9909q0 1.7431 0.55046 2.4954t1.8532 0.7523q0.27523 0 0.56881-0.0183t0.55046-0.0367q0.25688-0.0367 0.45872-0.055 0.22018-0.0367 0.31193-0.0734v-8.0551h1.7064z"/>
   <path d="m103.77 145.46q0.31193-0.20184 0.93579-0.42202 0.6422-0.22019 1.4679-0.22019 1.0275 0 1.8165 0.36698 0.80735 0.36697 1.3578 1.0275 0.55047 0.66056 0.8257 1.578 0.29358 0.91744 0.29358 2.0184 0 1.156-0.34863 2.0918-0.33028 0.91744-0.95413 1.5596-0.62386 0.64221-1.5046 0.99084-0.88074 0.34862-1.9817 0.34862-1.1927 0-2.1101-0.16513-0.91744-0.16514-1.5046-0.33028v-13.67l1.7064-0.29358zm0 7.6331q0.25688 0.0734 0.7156 0.14679 0.47707 0.055 1.1743 0.055 1.3762 0 2.2018-0.89909 0.8257-0.91744 0.8257-2.5872 0-0.73395-0.14679-1.3762-0.14679-0.64221-0.47707-1.1009-0.33028-0.47707-0.86239-0.73396-0.51377-0.27523-1.2477-0.27523-0.69725 0-1.2844 0.23854-0.58716 0.23853-0.89909 0.49541z"/>
  </g>
 </g>
</svg>
