<?xml version="1.0" encoding="UTF-8" standalone="no"?>
<!-- Created with Inkscape (http://www.inkscape.org/) -->
<svg xmlns="http://www.w3.org/2000/svg" height="13.343mm" width="27.597mm" version="1.1" viewBox="0 0 27.597364 13.343466">
 <g transform="translate(-12.179 -2.756)">
  <g transform="matrix(.82899 0 0 .78978 -58.934 -99.021)">
   <path stroke-width=".021989" d="m87.176 134.88 0.14614-1.1658-0.70139-0.74427c-0.38577-0.40935-0.69334-0.75225-0.68348-0.76203 0.02345-0.0232 4.9874-2.0062 5.0442-2.015 0.02848-0.004 0.79248 0.53978 2.2154 1.578 1.1946 0.87163 2.1898 1.5986 2.2117 1.6155l0.03977 0.0307-0.22899 1.8162-0.22899 1.8162-0.40072-0.0505-0.40072-0.0505 0.18199-1.4826 0.18199-1.4826-0.42546 0.26769-0.42545 0.26769-0.1478 1.1656-0.1478 1.1656-3.1002-1.7834-3.1294-0.18626z"/>
  </g>
 </g>
 <g transform="translate(-12.179 -2.756)">
  <g aria-label="alub" fill="#ff0" stroke-width=".26458">
   <path d="m15.786 14.762q0.5588 0 0.98213-0.01693 0.44027-0.03387 0.72813-0.1016v-2.6247q-0.16933-0.08467-0.5588-0.13547-0.37253-0.06773-0.9144-0.06773-0.3556 0-0.762 0.0508-0.38947 0.0508-0.72813 0.22013-0.32173 0.1524-0.54187 0.44027-0.22013 0.27093-0.22013 0.72813 0 0.84667 0.54187 1.1853 0.54187 0.32173 1.4732 0.32173zm-0.135-7.8912q0.94827 0 1.5917 0.254 0.6604 0.23707 1.0499 0.69427 0.4064 0.44027 0.57573 1.0668 0.16933 0.6096 0.16933 1.3547v5.5033q-0.2032 0.03387-0.57573 0.1016-0.3556 0.0508-0.8128 0.1016t-0.99907 0.08467q-0.52493 0.0508-1.0499 0.0508-0.74507 0-1.3716-0.1524t-1.0837-0.47413q-0.4572-0.33867-0.7112-0.88053-0.254-0.54187-0.254-1.3039 0-0.72813 0.28787-1.2531 0.3048-0.52493 0.8128-0.84667 0.508-0.32173 1.1853-0.47413 0.67733-0.1524 1.4224-0.1524 0.23707 0 0.49107 0.03387 0.254 0.01693 0.47413 0.06773 0.23707 0.03387 0.4064 0.06773 0.16933 0.03387 0.23707 0.0508v-0.44027q0-0.38947-0.08467-0.762-0.08467-0.38947-0.3048-0.67733-0.221-0.3056-0.611-0.475-0.372-0.1862-0.982-0.1862-0.77893 0-1.3716 0.11853-0.57573 0.1016-0.8636 0.22013l-0.186-1.3039q0.3048-0.13547 1.016-0.254 0.7112-0.13547 1.5409-0.13547z"/>
   <path d="m22.955 16.066q-1.4563-0.03387-2.0659-0.62653-0.6096-0.59267-0.6096-1.8457v-10.567l1.574-0.271v10.583q0 0.38947 0.06773 0.64347t0.22013 0.4064 0.4064 0.23707q0.254 0.06773 0.62653 0.11853z"/>
   <path d="m30.631 15.642q-0.54187 0.13547-1.4393 0.28787-0.88053 0.1524-2.0489 0.1524-1.016 0-1.7103-0.28787-0.69427-0.3048-1.1176-0.84667t-0.6096-1.27q-0.186-0.745-0.186-1.643v-4.9441h1.5748v4.6059q0 1.6087 0.508 2.3029 0.508 0.69427 1.7103 0.69427 0.254 0 0.52493-0.01693t0.508-0.03387q0.23707-0.03387 0.42333-0.0508 0.2032-0.03387 0.28787-0.06773v-7.4341h1.5748z"/>
   <path d="m33.596 7.4804q0.28787-0.18627 0.8636-0.38947 0.59267-0.2032 1.3547-0.2032 0.94827 0 1.6764 0.33867 0.74507 0.33867 1.2531 0.94827 0.508 0.6096 0.762 1.4563 0.27093 0.84667 0.27093 1.8627 0 1.0668-0.32173 1.9304-0.3048 0.84667-0.88053 1.4393-0.57573 0.59267-1.3885 0.9144-0.8128 0.32173-1.8288 0.32173-1.1007 0-1.9473-0.1524-0.84667-0.1524-1.3885-0.3048v-12.615l1.5748-0.27093zm0 7.0443q0.23707 0.06773 0.6604 0.13547 0.44027 0.0508 1.0837 0.0508 1.27 0 2.032-0.82973 0.762-0.84667 0.762-2.3876 0-0.67733-0.13547-1.27t-0.44027-1.016q-0.3048-0.44027-0.79587-0.67733-0.47413-0.254-1.1515-0.254-0.64347 0-1.1853 0.22013-0.54187 0.22013-0.82973 0.4572z"/>
  </g>
 </g>
</svg>
